<?xml version="1.0" encoding="UTF-8" standalone="no"?>
<!-- Created with Inkscape (http://www.inkscape.org/) -->

<svg
   xmlns:dc="http://purl.org/dc/elements/1.1/"
   xmlns:cc="http://creativecommons.org/ns#"
   xmlns:rdf="http://www.w3.org/1999/02/22-rdf-syntax-ns#"
   xmlns:svg="http://www.w3.org/2000/svg"
   xmlns="http://www.w3.org/2000/svg"
   xmlns:sodipodi="http://sodipodi.sourceforge.net/DTD/sodipodi-0.dtd"
   xmlns:inkscape="http://www.inkscape.org/namespaces/inkscape"
   width="239.47375mm"
   height="42.763279mm"
   viewBox="0 0 239.47375 42.763279"
   version="1.1"
   id="svg8"
   inkscape:version="0.92.3 (2405546, 2018-03-11)"
   sodipodi:docname="Gangsta Glasses.svg"
   inkscape:export-filename="/media/jc/Rick-V/Rick/Vlogs/jesseDOT/TOOLS/Gangsta Glasses 500.png"
   inkscape:export-xdpi="52.863113"
   inkscape:export-ydpi="52.863113">
  <defs
     id="defs2" />
  <sodipodi:namedview
     id="base"
     pagecolor="#ffffff"
     bordercolor="#666666"
     borderopacity="1.0"
     inkscape:pageopacity="0.0"
     inkscape:pageshadow="2"
     inkscape:zoom="1.4"
     inkscape:cx="491.24533"
     inkscape:cy="170.50071"
     inkscape:document-units="mm"
     inkscape:current-layer="layer1"
     showgrid="false"
     inkscape:window-width="1920"
     inkscape:window-height="1025"
     inkscape:window-x="0"
     inkscape:window-y="27"
     inkscape:window-maximized="1"
     fit-margin-top="0"
     fit-margin-left="0"
     fit-margin-right="0"
     fit-margin-bottom="0" />
  <metadata
     id="metadata5">
    <rdf:RDF>
      <cc:Work
         rdf:about="">
        <dc:format>image/svg+xml</dc:format>
        <dc:type
           rdf:resource="http://purl.org/dc/dcmitype/StillImage" />
        <dc:title />
      </cc:Work>
    </rdf:RDF>
  </metadata>
  <g
     inkscape:label="Layer 1"
     inkscape:groupmode="layer"
     id="layer1"
     transform="translate(14.432711,-81.24672)">
    <path
       style="fill:#000000;stroke:none;stroke-width:0.99999994"
       d="m -54.548828,307.07422 v 32.32422 h 32.326172 v 32.32617 h 32.324218 v 32.32422 h 32.324219 v 32.32422 h 32.326172 v 32.32617 h 32.324217 32.32422 32.32617 32.32422 32.32422 32.32617 32.32422 v -32.32617 h 32.32422 v -32.32422 h 32.32617 V 371.72461 339.39844 H 398 430.32422 v 32.32617 32.32422 h 32.32617 v 32.32422 h 32.32422 v 32.32617 h 32.32422 32.32617 32.32422 32.32422 32.32617 32.32422 32.32422 v -32.32617 h 32.32617 v -32.32422 h 32.32422 v -32.32422 h 32.32422 v -32.32617 h 32.32617 V 307.07422 H 818.22266 785.89844 753.57422 721.24805 688.92383 656.59961 624.27344 591.94922 559.625 527.29883 494.97461 462.65039 430.32422 398 365.67578 333.34961 301.02539 268.70117 236.375 204.05078 171.72656 139.40039 107.07617 74.751953 42.425781 10.101562 -22.222656 Z m 96.974609,32.32422 h 32.326172 v 32.32617 h 32.324217 v -32.32617 h 32.32422 v 32.32617 h 32.32617 v 32.32422 h 32.32422 v 32.32422 h -32.32422 v -32.32422 h -32.32617 v 32.32422 H 107.07617 V 404.04883 H 74.751953 V 371.72461 H 42.425781 Z m 64.650389,64.65039 h 32.32422 v -32.32422 h -32.32422 z m 355.57422,-64.65039 h 32.32422 v 32.32617 h 32.32422 V 339.39844 H 559.625 v 32.32617 h 32.32422 v 32.32422 h 32.32422 v 32.32422 H 591.94922 V 404.04883 H 559.625 v 32.32422 h -32.32617 v -32.32422 h -32.32422 v -32.32422 h -32.32422 z m 64.64844,64.65039 H 559.625 v -32.32422 h -32.32617 z"
       transform="scale(0.26458333)"
       id="rect21"
       inkscape:connector-curvature="0" />
    <path
       style="fill:#ffffff;stroke:none;stroke-width:0.99999994"
       d="M 96.974609 32.324219 L 96.974609 64.650391 L 129.30078 64.650391 L 129.30078 32.324219 L 96.974609 32.324219 z M 129.30078 64.650391 L 129.30078 96.976562 L 161.62695 96.976562 L 161.62695 64.650391 L 129.30078 64.650391 z M 161.62695 64.650391 L 193.95312 64.650391 L 193.95312 32.324219 L 161.62695 32.324219 L 161.62695 64.650391 z M 193.95312 64.650391 L 193.95312 96.976562 L 226.2793 96.976562 L 226.2793 64.650391 L 193.95312 64.650391 z M 226.2793 96.976562 L 226.2793 129.30273 L 258.60547 129.30273 L 258.60547 96.976562 L 226.2793 96.976562 z M 193.95312 96.976562 L 161.62695 96.976562 L 161.62695 129.30273 L 193.95312 129.30273 L 193.95312 96.976562 z M 517.19922 32.324219 L 517.19922 64.650391 L 549.52539 64.650391 L 549.52539 32.324219 L 517.19922 32.324219 z M 549.52539 64.650391 L 549.52539 96.976562 L 581.85156 96.976562 L 581.85156 64.650391 L 549.52539 64.650391 z M 581.85156 64.650391 L 614.17773 64.650391 L 614.17773 32.324219 L 581.85156 32.324219 L 581.85156 64.650391 z M 614.17773 64.650391 L 614.17773 96.976562 L 646.50391 96.976562 L 646.50391 64.650391 L 614.17773 64.650391 z M 646.50391 96.976562 L 646.50391 129.30273 L 678.83008 129.30273 L 678.83008 96.976562 L 646.50391 96.976562 z M 614.17773 96.976562 L 581.85156 96.976562 L 581.85156 129.30273 L 614.17773 129.30273 L 614.17773 96.976562 z "
       transform="matrix(0.26458333,0,0,0.26458333,-14.432711,81.24672)"
       id="rect8" />
  </g>
</svg>
